<?xml version="1.0" encoding="utf-8"?>
<!-- Generator: Adobe Illustrator 26.0.1, SVG Export Plug-In . SVG Version: 6.00 Build 0)  -->
<svg version="1.1" id="Calque_1" xmlns="http://www.w3.org/2000/svg" xmlns:xlink="http://www.w3.org/1999/xlink" x="0px" y="0px"
	 viewBox="0 0 49 49" style="enable-background:new 0 0 49 49;" xml:space="preserve">
<style type="text/css">
	.st0{fill-rule:evenodd;clip-rule:evenodd;fill:#FFFFFF;}
	.st1{fill:#253B6F;}
	.st2{fill:#FFFFFF;}
	.st3{fill:#9ABB44;}
</style>
<g>
	<path class="st0" d="M47.8,24.5c0,12.8-10.4,23.3-23.3,23.3S1.3,37.3,1.3,24.5S11.7,1.2,24.5,1.2S47.8,11.7,47.8,24.5z M24.5,45.9
		c11.8,0,21.4-9.6,21.4-21.4S36.4,3.1,24.5,3.1c-11.8,0-21.4,9.6-21.4,21.4S12.7,45.9,24.5,45.9z"/>
</g>
<path class="st1" d="M46.1,24.5c0,11.9-9.6,21.5-21.5,21.5C12.7,46,3,36.4,3,24.5S12.7,3,24.5,3C36.4,3,46.1,12.6,46.1,24.5z"/>
<path class="st2" d="M18.7,25.1c-0.5,0-1,0-1.4,0c-0.5,0-0.4,0.2-0.3,0.5c0.3,0.5,0.9,0.8,1.5,0.7c0.3,0,0.6-0.1,0.9-0.3
	c0.2-0.1,0.4-0.4,0.5-0.2c0.2,0.3,0.4,0.6,0.5,0.9c0.1,0.1-0.1,0.2-0.2,0.3c-1.1,0.9-3.2,0.8-4.2-0.2c-1-1.1-1.1-2.9-0.1-4
	c0.7-0.9,2.1-1.2,3.2-0.8c1,0.4,1.6,1.5,1.5,2.7c0,0.3-0.1,0.4-0.5,0.4C19.7,25,19.2,25.1,18.7,25.1z M18,23.9c0.2,0,0.5,0,0.7,0
	c0.4,0,0.4-0.1,0.3-0.4c-0.3-0.6-1.2-0.7-1.7-0.2c-0.1,0.1-0.3,0.3-0.2,0.5c0.1,0.2,0.3,0.1,0.5,0.1C17.6,24,17.8,23.9,18,23.9z"/>
<path class="st3" d="M35.7,17.3c0,0.7-0.3,1.2-0.9,1.5c-0.7,0.3-1.4,0.3-1.9-0.3c-1-1.1-2.9-1.2-4.1-0.2c-0.1,0.1-0.2,0.2-0.3,0.1
	c-0.1-0.1,0-0.3,0-0.4c0.4-1.5,2.1-2.8,3.7-2.9c1-0.1,1.9,0.1,2.7,0.6C35.4,16.2,35.7,16.7,35.7,17.3z"/>
<path class="st3" d="M14.3,31.5c-1.8,0-3.5-1.2-4.1-2.8c-0.1-0.2-0.2-0.3,0-0.5c0.2-0.2,0.3,0.1,0.5,0.2c1.2,0.9,2.7,0.8,3.8-0.2
	c0.6-0.5,1.2-0.6,1.9-0.4c0.6,0.2,1,0.7,1,1.4c0.1,0.8-0.2,1.3-0.9,1.7C15.9,31.3,15.2,31.5,14.3,31.5z"/>
<path class="st2" d="M12.5,27.6c-1.4,0-2.5-0.7-2.9-2c-0.4-1.2,0-2.6,1-3.3c1-0.7,2.7-0.7,3.7,0c0.6,0.4,0.1,0.7-0.1,1.1
	c-0.2,0.5-0.4,0.2-0.6,0.1c-0.8-0.5-1.6-0.4-2.2,0.2c-0.5,0.5-0.6,1.5-0.1,2.1c0.5,0.7,1.3,0.8,2.1,0.5c0.1,0,0.1-0.1,0.2-0.1
	c0.7-0.4,0.7-0.4,1,0.3c0.2,0.3,0.1,0.5-0.1,0.7C13.9,27.4,13.2,27.6,12.5,27.6z"/>
<path class="st2" d="M36,27.6c-0.7,0-1.3-0.2-1.9-0.6c-0.3-0.2-0.3-0.4-0.1-0.6c0.1-0.1,0.2-0.3,0.3-0.4c0.1-0.3,0.3-0.3,0.5-0.1
	c0.4,0.3,0.8,0.4,1.3,0.4c0.2,0,0.4-0.1,0.5-0.3c0.1-0.3-0.1-0.4-0.3-0.5c-0.4-0.2-0.9-0.4-1.3-0.6c-0.7-0.4-1-0.9-0.9-1.6
	c0.1-0.7,0.6-1.2,1.4-1.4c0.8-0.2,1.6-0.1,2.3,0.3c0.4,0.2,0.4,0.4,0.2,0.8c-0.2,0.5-0.4,0.8-1,0.4c-0.2-0.2-0.6-0.2-0.9-0.1
	c-0.2,0-0.4,0.1-0.4,0.3c0,0.2,0.1,0.4,0.3,0.4c0.3,0.1,0.6,0.3,0.9,0.4c1.1,0.5,1.6,1.1,1.4,2C37.9,27.1,37.1,27.6,36,27.6z"/>
<path class="st2" d="M24.8,24.6c0-0.3,0-0.7,0-1c0-0.3,0-0.5-0.4-0.5c-0.5,0-0.3-0.4-0.3-0.6c0-0.2-0.2-0.6,0.3-0.6
	c0.5,0,0.5-0.2,0.5-0.6c0-1.1,0.2-1.2,1.3-1c0.2,0,0.2,0.1,0.2,0.2c0,0.2,0,0.3,0,0.5c0,0.8,0,0.9,0.8,0.9c0.6,0,0.4,0.4,0.4,0.7
	c0,0.3,0.1,0.7-0.4,0.6c-0.2,0-0.3,0-0.5,0c-0.2,0-0.4,0.1-0.4,0.3c0,0.7,0,1.4,0,2.1c0,0.5,0.3,0.9,0.9,0.8c0.4,0,0.4,0.1,0.4,0.5
	c0,1,0,1-1,0.9c-1.2-0.1-1.8-0.9-1.9-2.1C24.8,25.2,24.8,24.9,24.8,24.6z"/>
<path class="st2" d="M21.5,23.7c0-1.1,0-2.3,0-3.4c0-0.4,0.1-0.5,0.5-0.5c1.3,0,1.1-0.2,1.1,1c0,2.1,0,4.2,0,6.3
	c0,0.5-0.1,0.6-0.6,0.6c-1,0-1,0-1-1C21.5,25.7,21.5,24.7,21.5,23.7z"/>
<path class="st2" d="M28.5,24.7c0-0.8,0-1.6,0-2.4c0-0.4,0.1-0.6,0.5-0.6c1,0,1,0,1,1c0,1.4,0,2.9,0,4.3c0,0.4-0.1,0.6-0.5,0.5
	c-1,0-1,0-1-1C28.5,26,28.5,25.4,28.5,24.7z"/>
<path class="st2" d="M32.9,24.7c0,0.8,0,1.7,0,2.5c0,0.3-0.1,0.4-0.4,0.4c-1.1,0-1.1,0-1.1-1.1c0-1.4,0-2.8,0-4.2
	c0-0.4,0.1-0.6,0.6-0.6c1,0,1,0,1,0.9C32.9,23.4,32.9,24,32.9,24.7z"/>
<path class="st2" d="M35.9,30.1c0.3-0.1,0.5-0.2,0.7-0.3c0.8-0.2,1.4,0.3,1.4,1.1c0,0.5,0,1,0,1.5c0,0.4-0.1,0.4-0.4,0.4
	c-0.3,0-0.5,0-0.5-0.4c0-0.4,0-0.8,0-1.2c0-0.3-0.1-0.6-0.5-0.6c-0.4,0-0.6,0.2-0.7,0.6c0,0.4,0,0.8,0,1.3c0,0.4-0.2,0.4-0.5,0.4
	c-0.3,0-0.5,0-0.5-0.4c0-1.1,0-2.3,0-3.4c0-0.4,0.2-0.4,0.5-0.4c0.3,0,0.5,0.1,0.4,0.4C35.9,29.4,35.9,29.8,35.9,30.1z"/>
<path class="st2" d="M24.8,30.8c0-0.8,0.4-1.4,1.2-1.8c0.8-0.3,1.5-0.2,2.2,0.3c0.2,0.2,0.2,0.3,0,0.5C28.1,30,28,30.2,27.7,30
	c-0.6-0.5-1.2-0.4-1.6,0.1c-0.4,0.4-0.4,1.1,0,1.5c0.4,0.4,0.9,0.5,1.5,0.2c0.2-0.1,0.3-0.3,0.5-0.1c0.4,0.3,0.4,0.5,0,0.8
	c-0.7,0.5-1.5,0.5-2.2,0.1C25.1,32.2,24.8,31.6,24.8,30.8z"/>
<path class="st2" d="M31.5,31.7c0,0.2,0,0.4,0,0.6c0,0.6-0.2,0.8-0.7,0.5c-0.3-0.1-0.4,0-0.6,0c-0.3,0.1-0.6,0.1-0.8,0
	c-0.5-0.1-0.7-0.5-0.7-0.9c0-0.5,0.3-0.7,0.7-0.8c0.3,0,0.6,0,0.9-0.1c0.1,0,0.3,0,0.3-0.1c0-0.1-0.1-0.2-0.2-0.3
	c-0.3-0.1-0.6-0.1-0.9,0c-0.3,0.1-0.4,0.1-0.5-0.2C28.8,30,29.1,30,29.3,30c0.3-0.1,0.7-0.2,1.1-0.1c0.8,0,1.1,0.4,1.1,1.1
	C31.5,31.2,31.5,31.4,31.5,31.7z M30.1,31.5c-0.3,0-0.6,0-0.6,0.3c0,0.3,0.2,0.4,0.5,0.4c0.3,0,0.6-0.1,0.6-0.5
	C30.6,31.4,30.3,31.6,30.1,31.5z"/>
<path class="st2" d="M33.2,29.8c0.3,0,0.6,0.1,0.8,0.2c0.2,0.1,0.4,0.2,0.2,0.5c-0.1,0.2-0.2,0.4-0.5,0.2c-0.3-0.1-0.8-0.3-0.9,0
	c-0.1,0.4,0.4,0.3,0.7,0.5c0.4,0.2,0.8,0.4,0.8,0.9c0,0.6-0.4,0.8-0.9,0.9c-0.5,0.1-0.9,0-1.3-0.2c-0.2-0.1-0.4-0.2-0.2-0.5
	c0.1-0.3,0.3-0.2,0.5-0.1c0.2,0.1,0.4,0.2,0.7,0.2c0.2,0,0.3,0,0.4-0.2c0-0.2-0.1-0.3-0.3-0.3c-0.2-0.1-0.3-0.1-0.5-0.2
	c-0.5-0.2-0.8-0.4-0.7-0.9c0.1-0.6,0.5-0.8,0.9-0.8C33.1,29.8,33.2,29.8,33.2,29.8z"/>
<path class="st2" d="M29.4,21.2c-0.8,0-0.8,0-0.8-0.7c0-0.8-0.1-0.7,0.8-0.7c0.8,0,0.7-0.1,0.7,0.7C30.1,21.2,29.9,21.3,29.4,21.2z"
	/>
<path class="st2" d="M32.2,21.2c-0.8,0-0.8,0-0.8-0.7c0-0.8-0.1-0.6,0.8-0.7c0.7-0.1,0.7,0.2,0.7,0.8C33,21.2,32.6,21.3,32.2,21.2z"
	/>
</svg>
