<?xml version="1.0" encoding="utf-8"?>
<!-- Generator: Adobe Illustrator 26.0.1, SVG Export Plug-In . SVG Version: 6.00 Build 0)  -->
<svg version="1.1" id="Calque_1" xmlns="http://www.w3.org/2000/svg" xmlns:xlink="http://www.w3.org/1999/xlink" x="0px" y="0px"
	 viewBox="0 0 512 512" style="enable-background:new 0 0 512 512;" xml:space="preserve">
<style type="text/css">
	.st0{display:none;}
	.st1{display:inline;fill-rule:evenodd;clip-rule:evenodd;fill:#FFFFFF;}
	.st2{fill-rule:evenodd;clip-rule:evenodd;fill:#FFFFFF;}
	.st3{fill:#EA6607;}
	.st4{fill-rule:evenodd;clip-rule:evenodd;fill:#005CA9;}
	.st5{fill-rule:evenodd;clip-rule:evenodd;fill:#FEFEFE;}
</style>
<g class="st0">
	<path class="st1" d="M495.6,255.7c0,132.5-107.4,239.9-239.9,239.9S15.7,388.2,15.7,255.7S123.2,15.7,255.7,15.7
		S495.6,123.2,495.6,255.7z M255.7,476.2c121.8,0,220.5-98.7,220.5-220.5S377.5,35.2,255.7,35.2S35.2,133.9,35.2,255.7
		S133.9,476.2,255.7,476.2z"/>
</g>
<g>
	<path class="st2" d="M506.2,255.7c0,138.4-112.2,250.6-250.6,250.6S5.1,394.1,5.1,255.7C5.1,117.3,117.3,5.1,255.7,5.1
		S506.2,117.3,506.2,255.7z M255.7,485.9c127.2,0,230.2-103.1,230.2-230.2c0-127.2-103.1-230.2-230.2-230.2S25.4,128.5,25.4,255.7
		C25.4,382.8,128.5,485.9,255.7,485.9z"/>
</g>
<path class="st3" d="M485.9,255.7c0,127.2-103.1,230.2-230.2,230.2c-127.2,0-230.2-103.1-230.2-230.2S128.5,25.4,255.7,25.4
	C382.8,25.4,485.9,128.5,485.9,255.7z"/>
<path class="st4" d="M223.7,199.6c0,1,0,2,0,3h-0.1c0,0.9,0,1.9,0,2.8v0c0,1.9,0,3.8,0,5.6c0.1,6.7,3,11.8,8.9,14.9
	c7.6,3.9,15.6,4.1,23.4,0.6c6.6-2.9,10.1-8.1,10.2-15.4c0.1-5.7,0-11.4,0-17.2c0-6.7-3-11.7-8.9-14.8c-7.6-3.9-15.4-4.1-23.2-0.8
	c-6.3,2.7-10.1,7.5-10.4,14.5C223.6,195.2,223.6,197.4,223.7,199.6z M253.1,205.1c0-0.8,0-1.7,0-2.5c0-0.9,0-1.9,0-2.8v0l0,0l0,0
	c0-1.9,0-3.7,0-5.6c0.1-2.3-1-3.9-3-4.9c-3.4-1.6-6.8-1.7-10.2-0.2c-2.2,1-3.3,2.7-3.3,5.3c0.1,5.4,0.1,10.9,0,16.3c0,2.4,1,4,3,4.9
	c3.5,1.6,7.1,1.7,10.6-0.1c1.9-1,3-2.5,2.9-4.8C253.1,209,253.1,207,253.1,205.1L253.1,205.1z M312.6,176.9l-3.4,0
	c0.2,0.6,0.4,1.1,0.6,1.7l0,0l0,0l0,0c0.1,0.4,0.3,0.8,0.4,1.2c5.7,15.8,11.4,31.6,17,47.3c0.3,0.8,0.7,1.1,1.5,1
	c3.1-0.1,6.2-0.1,9.3,0c1.1,0,1.6-0.3,2-1.4c4-11.1,8-22.2,12-33.3l2.5-7.1c0.5-1.5,1.1-3,1.6-4.5l0,0l0,0c0.6-1.6,1.2-3.3,1.8-4.9
	l-3.4,0l0,0c-3.4,0-6.6,0-9.9,0c-0.6,0-0.7,0.3-0.8,0.7c0,0,0,0.1,0,0.1c0,0,0,0.1,0,0.1c-0.4,1.3-0.9,2.7-1.3,4l0,0v0l0,0
	c-1.1,3.4-2.2,6.8-3.3,10.3c-0.4,1.2-0.8,2.5-1.2,3.7c-1.1,3.2-2.2,6.5-2.7,9.9c-0.3,1.9-0.7,3.8-1.1,5.7l0,0l0,0
	c-0.2,0.9-0.4,1.8-0.5,2.7c-0.3-0.4-0.4-0.8-0.4-1.2c-0.2-1.2-0.4-2.3-0.6-3.5c-0.4-2.5-0.8-5-1.5-7.4c-1.7-5.8-3.6-11.6-5.5-17.4
	l0,0l0,0l0,0c-0.7-2.3-1.5-4.6-2.2-6.9c-0.1-0.4-0.3-0.6-0.8-0.6C319.2,176.9,315.9,176.9,312.6,176.9L312.6,176.9L312.6,176.9z
	 M200.6,191.1c-1.5,3.5-3,7-4.7,10.8l-0.2-0.4c-0.2-0.5-0.4-0.8-0.5-1.1c-3.2-7.4-6.4-14.9-9.6-22.3c-0.3-0.8-0.8-1.1-1.7-1.1
	c-3.6,0.1-7.2,0.1-10.7,0c-0.9,0-1.2,0.1-1.2,1.1c0,16.4,0,32.7,0,49.1c0,0.8,0.2,1.1,1,1.1c3.7-0.1,7.4,0,11.1,0c0.8,0,1-0.2,1-1
	c0-1.6,0-3.1,0-4.7c0-5.5,0-10.9-0.7-16.4c-0.1-0.7-0.1-1.4-0.1-2l0,0c0-0.3,0-0.6,0-0.9c0.4,0.2,0.5,0.5,0.6,0.8l0.9,2.3l0,0l0,0
	c1.8,4.5,3.5,8.9,5.2,13.4c0.3,0.7,0.6,1,1.4,0.9c2.3-0.1,4.6-0.1,6.9,0c0.8,0,1.2-0.3,1.4-1c1.9-5.1,3.9-10.2,5.9-15.3l0,0l0,0v0
	c0-0.1,0.1-0.2,0.1-0.3c0.1-0.3,0.2-0.7,0.5-0.9c0.3,0.2,0.2,0.4,0.2,0.6l0,0c0,0,0,0.1,0,0.1c-0.8,6.9-0.8,13.8-0.8,20.7l0,2.6
	c0,0.8,0.1,1.1,1,1.1c3.7-0.1,7.5,0,11.2,0c0.7,0,0.9-0.2,0.9-0.9c0-16.4,0-32.9,0-49.3c0-0.8-0.2-1-1-1c-3.7,0-7.3,0.1-11,0
	c-0.9,0-1.2,0.3-1.6,1.1C204.4,182.4,202.5,186.8,200.6,191.1L200.6,191.1L200.6,191.1z M311.3,205.1L311.3,205.1c0,1.9,0,3.7,0,5.6
	c0.1,7.8-3.6,13.2-10.7,16.1c-8.1,3.3-16.2,3-23.9-1.5c-5.3-3.1-7.9-7.9-7.9-14.1c0-1.5,0-3.1,0-4.6v0c0-3.9,0.1-7.9-0.1-11.8
	c-0.2-8.6,4.5-14.3,11.6-16.8c8.2-2.9,16.2-2.5,23.6,2.3c4.9,3.1,7.2,7.7,7.2,13.6c0,1.5,0,2.9,0,4.4v0c0,1.5,0,2.9,0,4.4
	C311.3,203.4,311.3,204.3,311.3,205.1z M298.4,202.6c0,0.8,0,1.7,0,2.5v0c0,1.9,0,3.8,0,5.7c0,2.2-0.9,3.8-2.8,4.7
	c-3.7,1.9-7.5,1.9-11.2-0.1c-1.7-0.9-2.6-2.5-2.6-4.5c0-5.6,0-11.2,0-16.8c0-2.2,1-3.8,2.8-4.8c3.7-2,7.5-1.8,11.2,0.1
	c1.7,0.9,2.6,2.5,2.6,4.5V202.6z"/>
<path class="st5" d="M123.5,248.1c-2.1,3.6-4.2,7.3-6.4,11c-0.8-2.9-1.6-5.6-2.4-8.2l-2.1-7.2v0c-2.5-8.6-4.9-17.1-7.4-25.7
	c-0.3-0.9-0.6-1.2-1.6-1.2c-6.5,0.1-13,0-19.6,0h0c-0.8,0-1.2,0.1-1.4,1.1c-0.5,4.2-1.1,8.3-1.7,12.5l0,0c-0.2,1.6-0.5,3.2-0.7,4.8
	c-0.6,4.1-1.1,8.2-1.7,12.3l0,0l0,0c-0.7,4.8-1.3,9.5-2,14.3c-1.2,8.2-2.3,16.5-3.5,24.7L71,302.4l0,0.1c-0.1,0.7-0.2,1.2,0.9,1.2
	c6.7-0.1,13.3,0,20,0h0c0.7,0,1-0.1,1.1-0.9c0.3-2.2,0.6-4.3,0.9-6.5v0h0l0,0h0c0.2-1.5,0.4-3,0.6-4.5c0.2-1.2,0.3-2.3,0.5-3.5
	c0.5-3.5,1-7,1.3-10.4c0.3-3.3,0.5-6.5,0.7-9.8l0,0l0,0h0l0,0v0l0,0c0.1-1.6,0.2-3.3,0.3-4.9c0-0.2,0-0.3,0-0.5c0-0.5,0-1.1,0.3-1.6
	c0.4,0.3,0.4,0.7,0.5,1l0,0c0,0.1,0,0.2,0.1,0.3l0,0c2.3,9.1,4.6,18.3,6.9,27.5c0.2,0.8,0.5,1.1,1.4,1c4.3,0,8.5-0.1,12.8,0
	c1,0,1.5-0.4,1.9-1.2c4.7-9.2,9.5-18.3,14.3-27.4c0.1-0.1,0.1-0.2,0.2-0.4c0.1-0.4,0.3-0.8,0.7-0.7c0.4,0.2,0.2,0.6,0.1,1
	c0,0.1-0.1,0.3-0.1,0.4c-0.4,2-0.9,4.1-1.3,6.1c-0.6,2.6-1.1,5.3-1.7,8c-0.7,3.4-1.2,6.9-1.6,10.4c-0.3,1.9-0.5,3.7-0.8,5.6
	c-0.5,3.2-1,6.5-1.4,9.8c0,0.1,0,0.2,0,0.2c-0.1,0.4-0.2,0.9,0.7,0.9c6.9,0,13.7,0,20.6,0c0.7,0,0.8-0.3,0.9-0.9
	c0.2-1.8,0.5-3.5,0.7-5.3c0.6-4.4,1.2-8.8,1.8-13.2c0.6-4.4,1.2-8.8,1.8-13.2c0.6-4.4,1.2-8.8,1.9-13.2l0,0l0,0
	c0.6-4.4,1.2-8.8,1.9-13.2l0.7-5.2c1-7.2,2-14.3,3-21.4c0.1-0.9,0-1.2-1-1.2c-6.6,0-13.2,0-19.8,0c-0.8,0-1.2,0.2-1.6,0.9
	c-3.7,6.4-7.4,12.9-11.1,19.3l-2.4,4.2L123.5,248.1z M351,304.6c1.8-0.2,3.6-0.7,5.4-1.4c-0.4,4.2-2.7,7-6.7,7.7
	c-4.9,0.9-9.4-0.2-13.4-3c-0.6-0.4-0.9-0.5-1.5,0.1c-2.9,3.4-5.9,6.8-8.9,10.1c-0.6,0.7-0.6,1,0.1,1.5c7.8,6.4,16.7,9.4,26.8,8.1
	c5.9-0.7,11-3.1,15-7.5c4.1-4.4,6.3-9.7,7.7-15.5c1-4.2,1.5-8.4,2.1-12.7c0.2-1.6,0.4-3.2,0.6-4.7c1.1-7.8,2.2-15.5,3.3-23.3
	c1.1-7.8,2.2-15.5,3.3-23.3c0.1-0.6,0-0.8-0.7-0.8c-6.3,0-12.6,0-18.8,0c-0.7,0-0.8,0.2-0.9,0.9c-0.2,1.8-0.5,3.5-0.7,5.3
	c-0.1,0.8-0.2,1.5-0.3,2.3l-3.5,25.1c-0.3,2.1-0.6,4.2-0.9,6.4c-0.3,2.1-0.6,4.2-0.9,6.4c-0.1,0.5-0.2,0.9-0.7,1.2
	c-2.2,1-4.5,1.3-6.8,0.7c-2-0.5-3-1.8-3.1-3.8c0-1.2,0.1-2.3,0.3-3.4c0.1-0.3,0.1-0.7,0.2-1c1.2-8.2,2.3-16.5,3.5-24.7
	c0.3-1.8,0.5-3.6,0.8-5.4l0,0l0,0c0.4-2.9,0.8-5.7,1.2-8.6c0.1-0.8,0-1.1-0.9-1.1c-6.1,0-12.2,0-18.2,0c-0.7,0-1,0.2-1.1,0.9
	c-0.3,2.2-0.6,4.4-0.9,6.6L332,250c-0.3,2.3-0.6,4.5-1,6.8l0,0c-0.8,5.9-1.7,11.8-2.5,17.8c-0.1,1-0.3,2-0.4,3v0
	c-0.5,3-0.9,5.9-0.8,9c0.2,5.8,2.2,10.8,7,14.4C339.3,304.7,345,305.3,351,304.6z M255.8,303.6l-2.7,0h0c-2.2,0-4.5,0-6.7,0
	c-0.7,0-0.9-0.1-0.8-0.9c0.8-5.4,1.5-10.8,2.3-16.2c1.1-7.6,2.2-15.2,3.3-22.8c0.8-5.5-2.1-6.9-6.5-6.5c-2.9,0.2-3,0.3-3.4,3.2
	c-0.9,6.4-1.8,12.8-2.7,19.2l0,0l0,0c-0.6,4.6-1.3,9.1-1.9,13.7c-0.2,1.1-0.3,2.2-0.5,3.3l0,0l0,0v0c-0.3,2-0.6,4-0.8,6
	c-0.1,0.7-0.3,1-1.1,1c-6.3,0-12.6,0-18.8,0c-0.8,0-1-0.2-0.9-1c0.7-4.6,1.3-9.2,2-13.8l1-6.9c1.2-8.2,2.3-16.3,3.5-24.5l0.6-4.3
	l0,0c0.4-2.7,0.8-5.4,1.1-8.1l0-0.1c0.1-0.5,0.1-1,0.8-1.3c10.6-4.4,21.6-6.1,33-3.8c3.9,0.8,7.6,2.4,10.5,5.2
	c3.4,3.2,4.8,7.3,5.1,11.8c0.2,3.1-0.2,6.1-0.7,9.1c-0.1,0.8-0.2,1.5-0.3,2.3c-0.8,6.2-1.7,12.3-2.6,18.5h0l0,0v0l0,0l0,0l-0.9,6
	c-0.1,0.9-0.3,1.8-0.4,2.7v0l0,0l0,0v0v0c-0.3,2.4-0.7,4.8-1,7.2c-0.1,0.7-0.4,0.9-1,0.9c-2.1,0-4.2,0-6.3,0h0h0
	C257.9,303.6,256.9,303.6,255.8,303.6z M161.3,276.5L161.3,276.5c0.2-1.4,0.4-2.8,0.6-4.2c0.1-0.6,0.2-1.3,0.2-1.9
	c0.4-3.2,0.8-6.4,1.5-9.6c2.3-10.6,9.1-17.1,19.1-20.4c6.8-2.2,13.7-2.2,20.4,0.4c8.6,3.3,13.2,10.7,12.2,19.9
	c-0.8,7.6-1.9,15.1-3.1,22.6c-1.3,8.1-6.1,14-13.3,17.6c-9,4.6-18.4,5.5-27.8,1.3c-7.2-3.2-10.8-8.9-10.9-16.9
	C160.4,282.4,160.9,279.5,161.3,276.5z M185.7,287.3c-3.4,0-5.2-2.1-4.7-5.5c0.6-4.4,1.2-8.7,1.8-13.1l0,0c0.3-2.2,0.6-4.5,0.9-6.7
	c0.3-2.4,1.9-3.6,4-4.4c2.1-0.8,4.1-0.4,5.8,1.1c1,0.9,1.3,2,1.2,3.3c-0.4,2.5-0.7,5-1,7.6v0l0,0v0v0l0,0c-0.6,4.1-1.1,8.2-1.7,12.4
	C191.4,285.6,189.3,287.4,185.7,287.3z M294.8,280c2.3,0.5,4.6,0.7,6.9,0.6c2.2,0.1,4.2-0.1,6.3-0.5c4.8-1,9.2-2.8,12.9-6.2
	c4.8-4.5,6.5-10.2,6.4-16.6c-0.1-7.8-4.3-14-11.6-16.8c-5.9-2.2-12-2.3-18-0.6c-11.4,3.2-18.8,10.4-21,22.3
	c-1.2,6.9-2.3,13.9-2.9,20.9c-0.8,7.8,2.3,13.9,9.1,18.1c4.1,2.6,8.7,3.6,13.5,3.7c9.4,0.1,17.5-3,24.3-9.5c0.8-0.7,0.7-1.1,0-1.7
	c-2.8-2.7-5.5-5.4-8.1-8.2c-0.7-0.8-1.1-0.9-2.1-0.2c-3.9,2.7-8.1,3.6-12.6,1.9c-2.6-1-4.2-3.4-4.1-6.1
	C293.7,280.3,293.8,279.8,294.8,280z M296.4,267.8c1.2,0.4,2.4,0.7,3.9,0.7c4.5,0,7.6-2.5,8.1-7c0.3-2.3-0.8-4.4-2.7-5.2
	c-3.6-1.4-8.2,1.1-8.9,4.9c-0.2,1.1-0.4,2.2-0.5,3.4v0l0,0v0l0,0l0,0c-0.1,0.8-0.2,1.5-0.3,2.3C295.8,267.4,295.9,267.6,296.4,267.8
	z M413.7,288c-11.3,3.3-24.4,6.4-36,8.1l2.1,0.1c3.5,0,7.1,0,10.6-0.1c12.5-0.5,24.8-2.5,37-5.6c6.8-1.7,13.4-3.8,19.9-6.4
	c0.7-0.3,1-0.5,0.8-1.4c-0.2-0.9-0.4-1.8-0.5-2.7v0c-0.1-0.4-0.1-0.7-0.2-1.1c-1.1-6-2.2-12.1-3.3-18.1l0,0
	c-1.1-6-2.2-12.1-3.3-18.1v0v0l0,0c-0.7-4-1.4-7.9-2.2-11.9c-14.8,13.3-32.8,21-51,28.8l-0.1,0.1c6.2-0.6,12-2,17.6-3.7
	c9.1-2.7,17.9-6.1,26.6-10c0.1,0,0.1-0.1,0.2-0.1l0,0l0,0c0.5-0.2,0.8-0.4,1,0.5c2,10.8,4,21.6,6,32.4c0.2,0.9,0,1.1-0.8,1.4
	C430.1,282.9,421.9,285.6,413.7,288z M378.3,299.3c4,0,7.9-0.1,11.9-0.3c18.4-0.9,36.4-3.7,54-9.1c0.8-0.2,1.1-0.1,1.3,0.7
	c0.4,2.5,0.9,5,1.5,7.5c0.2,0.7,0,0.9-0.7,1c-5.3,0.8-10.5,1.3-15.8,1.8c-9,0.8-18.1,1.3-27.1,1.1
	C395,301.8,386.6,301.3,378.3,299.3z M396,304.6c-4.8-0.4-9.6-0.7-14.4-1.3l-1.9-0.3c1.3,0.4,3.3,1,5,1.5c0.9,0.3,1.7,0.5,2.4,0.7
	c11.7,3.5,23.6,5.6,35.8,6.2c7.4,0.4,14.8,0.2,22.2-0.8c0,0,0.1,0,0.1,0c0.5-0.1,0.8-0.1,0.7-0.8c-0.5-2.5-0.9-5.1-1.3-7.6
	c-0.1-0.8-0.3-0.9-1-0.6c-3.7,1.1-7.5,1.9-11.4,2.4c-7.8,1.1-15.6,1.4-23.5,1.2C404.5,305.2,400.3,304.9,396,304.6L396,304.6z"/>
</svg>
