<?xml version="1.0" encoding="utf-8"?>
<!-- Generator: Adobe Illustrator 26.0.1, SVG Export Plug-In . SVG Version: 6.00 Build 0)  -->
<svg version="1.1" id="Calque_1" xmlns="http://www.w3.org/2000/svg" xmlns:xlink="http://www.w3.org/1999/xlink" x="0px" y="0px"
	 viewBox="0 0 46 47" style="enable-background:new 0 0 46 47;" xml:space="preserve">
<style type="text/css">
	.st0{fill-rule:evenodd;clip-rule:evenodd;fill:#FFFFFF;}
	.st1{fill:#C82A1D;}
	.st2{fill:#FFFFFF;}
</style>
<g>
	<path class="st0" d="M45.1,23.5c0,11.9-9.6,21.5-21.5,21.5S2,35.4,2,23.5C2,11.6,11.6,2,23.5,2S45.1,11.6,45.1,23.5z M23.5,43.3
		c10.9,0,19.8-8.9,19.8-19.8c0-10.9-8.9-19.8-19.8-19.8S3.8,12.6,3.8,23.5C3.8,34.4,12.6,43.3,23.5,43.3z"/>
</g>
<path class="st1" d="M43.3,23.5c0,10.9-8.9,19.8-19.8,19.8c-10.9,0-19.8-8.9-19.8-19.8S12.6,3.7,23.5,3.7
	C34.5,3.7,43.3,12.6,43.3,23.5z"/>
<path class="st2" d="M10.3,20.6c-0.4,0-0.8,0-1.2,0c-0.2,0-0.2-0.1-0.2-0.3C9,20.1,9.2,20,9.4,20c0.3,0,0.6,0,0.9,0
	c0.2,0,0.3,0,0.4-0.2c0.7-1.4,1.8-2.2,3.3-2.6c0.4-0.1,0.9-0.2,1.4-0.1c0.2,0,0.4,0.1,0.4,0.4c0,0.2-0.3,0.5-0.5,0.5
	c-0.2,0-0.5-0.1-0.7-0.1c-0.8-0.2-1.4,0.1-1.8,0.8c-0.2,0.4-0.4,0.8-0.6,1.3c0.5,0,1,0,1.5,0c0.3,0,0.3,0,0.2,0.3
	c-0.1,0.2-0.2,0.3-0.5,0.3c-0.4,0-0.8,0-1.3,0c-0.2,0-0.3,0.1-0.4,0.2c-0.8,1.7-1.7,3.4-2.6,5.1c-0.1,0.2-0.2,0.3-0.4,0.3
	c-0.2,0-0.4,0.1-0.7,0.1c-0.3,0-0.3,0-0.2-0.3c0.8-1.7,1.6-3.4,2.3-5.1C10.2,20.8,10.3,20.7,10.3,20.6z"/>
<path class="st2" d="M25.3,19.6c-0.2-0.1-0.3-0.1-0.5-0.2c-1.7-0.2-3.3,0.2-4.7,1.2c-0.4,0.3-0.8,0.7-1,1.3c-0.3,0.8,0,1.4,0.7,1.7
	c0.4,0.2,0.8,0.2,1.2,0.2c1.4,0,2.6-0.4,3.8-1.1c0.1-0.1,0.3-0.1,0.2-0.2c0-0.1-0.2-0.2-0.3-0.2c-0.1,0-0.2,0.1-0.3,0.1
	c-0.8,0.4-1.7,0.7-2.6,0.7c-0.2,0-0.5,0-0.7-0.1c-0.5-0.1-0.7-0.4-0.6-0.9c0-0.1,0.1-0.2,0.3-0.2c0.7,0,1.3-0.1,2-0.2
	c0.7-0.1,1.4-0.3,2.1-0.6c0.3-0.1,0.5-0.3,0.7-0.6C25.8,20.2,25.7,19.8,25.3,19.6z M24.1,20.4c-0.1,0.2-0.3,0.4-0.6,0.5
	c-0.5,0.3-1.1,0.4-1.7,0.5c-0.3,0-0.6,0.1-0.9,0.1c0.1-0.2,0.3-0.4,0.5-0.6c0.6-0.5,1.2-0.9,2-1.1c0.2,0,0.4,0,0.5,0
	C24.1,20,24.2,20.2,24.1,20.4z"/>
<path class="st2" d="M31.6,19.6c-0.4-0.1-0.8-0.2-1.3-0.2c-1.2,0-2.4,0.4-3.5,1.1c-0.5,0.3-0.9,0.7-1.2,1.2c-0.5,0.9-0.2,1.7,0.8,2
	c0.8,0.2,1.6,0.2,2.4,0c0.9-0.2,1.7-0.5,2.5-1c0.1,0,0.2-0.1,0.1-0.2c-0.1-0.1-0.2-0.3-0.5-0.1c-0.4,0.2-0.7,0.4-1.1,0.5
	c-0.7,0.2-1.5,0.4-2.3,0.2C27,23,26.9,22.7,27,22.2c0-0.1,0.1-0.2,0.2-0.2c0.4,0,0.8-0.1,1.3-0.1c0.8-0.1,1.7-0.2,2.5-0.6
	c0.3-0.1,0.7-0.3,0.9-0.6C32.3,20.3,32.1,19.8,31.6,19.6z M30.5,20.5c-0.1,0.2-0.3,0.4-0.6,0.5c-0.7,0.3-1.4,0.5-2.1,0.6
	c-0.2,0-0.3,0-0.5,0c0.6-0.8,1.2-1.3,2.1-1.5c0.3-0.1,0.6-0.1,0.9-0.1C30.6,20,30.6,20.2,30.5,20.5L30.5,20.5z"/>
<path class="st2" d="M18.8,26.4c-0.4,0.6-0.8,1.2-1.2,1.8l-1.2-1.8l-0.1,0v0.2c0,0.8,0,1.5,0,2.3c0,0.1,0,0.2-0.2,0.2
	c-0.2,0-0.5,0-0.7,0c-0.1-0.2,0-0.4,0-0.7c0-1.1,0-2.2,0-3.3c0-0.2,0-0.2,0.2-0.3c0.6-0.1,1,0.1,1.2,0.7c0.2,0.3,0.4,0.6,0.6,1
	c0.1,0.2,0.2,0.2,0.3,0c0.3-0.5,0.6-1,0.9-1.4c0.1-0.1,0.1-0.2,0.3-0.2c0.3,0,0.6-0.1,0.8,0c0.2,0.1,0.1,0.5,0.1,0.8
	c0,1.1,0,2.2,0,3.3c0,0.2,0,0.2-0.2,0.2c-0.2,0-0.5,0-0.6,0c-0.1-0.2,0-0.4,0-0.6c0-0.6,0-1.2,0-1.8C18.9,26.6,18.9,26.5,18.8,26.4z
	"/>
<path class="st2" d="M29.3,27.4c0-0.8,0-1.5,0-2.3c0-0.2,0.1-0.3,0.3-0.3c0.2,0,0.5-0.1,0.6,0c0.1,0.1,0,0.4,0,0.6
	c0,1.1,0,2.3,0,3.4c0,0.2-0.1,0.2-0.2,0.2c-0.4,0.1-0.7-0.1-0.9-0.5c-0.5-0.8-1.1-1.5-1.7-2.2c-0.1,0.1-0.1,0.1-0.1,0.2
	c0,0.7,0,1.5,0,2.2c0,0.2,0,0.3-0.2,0.2c-0.2,0-0.5,0.1-0.7-0.1c-0.1-0.1,0-0.4,0-0.6c0-1.1,0-2.2,0-3.3c0-0.2,0-0.2,0.2-0.3
	c0.5,0,0.8,0.1,1,0.5C28.2,26.1,28.7,26.7,29.3,27.4L29.3,27.4z"/>
<path class="st2" d="M23.1,24.8c-1.3,0-2.3,1-2.3,2.2c0,1.3,1,2.2,2.3,2.2c1.3,0,2.3-0.9,2.3-2.2S24.4,24.8,23.1,24.8z M23.1,28.4
	c-0.7,0-1.3-0.6-1.3-1.4s0.6-1.3,1.3-1.3c0.7,0,1.3,0.6,1.3,1.4C24.4,27.8,23.8,28.4,23.1,28.4z"/>
<path class="st2" d="M16.9,21c0.1,0,0.2-0.1,0.2-0.2c0.5-0.4,1-0.9,1.6-1.1c0.3-0.2,0.6-0.2,1-0.2c0.3,0,0.5,0.3,0.4,0.6
	c0,0.2-0.1,0.3-0.3,0.4c-0.1,0.1-0.3,0.2-0.4,0.2c-0.1,0-0.1,0-0.2,0c-0.9-0.2-1.5,0.3-2.1,0.9c-0.6,0.6-1.1,1.4-1.5,2.1
	c-0.1,0.2-0.2,0.3-0.4,0.3c-0.3,0-0.5,0-0.8-0.1c-0.2-0.1-0.3-0.2-0.2-0.4c0.4-0.8,0.9-1.6,1.3-2.4c0.1-0.1,0.1-0.2,0.1-0.3
	c0-0.1,0.1-0.2,0-0.3s-0.2-0.1-0.3-0.1c-0.4,0.1-0.8,0.3-1.1,0.5c-0.1,0-0.2,0.1-0.3,0c-0.1,0-0.2-0.1-0.2-0.1c0,0,0,0,0,0
	c0,0,0,0,0,0c0,0,0,0,0,0c0,0,0,0,0,0c0.8-0.6,1.6-1.2,2.7-1.2c0.1,0,0.2,0,0.2,0c0.4,0.1,0.5,0.3,0.3,0.7
	C17.2,20.5,17,20.7,16.9,21z"/>
<path class="st2" d="M31.4,27c0-0.6,0-1.3,0-1.9c0-0.2,0.1-0.2,0.2-0.2c0.9,0,1.9,0,2.8,0c0.2,0,0.2,0,0.2,0.2c0,0.6,0,0.6-0.6,0.6
	c-0.5,0-1,0-1.5,0c-0.1,0-0.2,0-0.2,0.2c0,0.7,0,0.7,0.7,0.7c0.4,0,0.8,0,1.2,0c0.1,0,0.2,0,0.2,0.2c0,0.7,0,0.7-0.6,0.7
	c-0.4,0-0.8,0-1.2,0c-0.2,0-0.2,0.1-0.2,0.2c0,0.2-0.1,0.5,0,0.6c0.1,0.1,0.4,0,0.6,0c0.5,0,1,0,1.5,0c0.2,0,0.2,0,0.2,0.2
	c0,0.6,0,0.6-0.6,0.6c-0.8,0-1.6,0-2.4,0c-0.2,0-0.3,0-0.3-0.3C31.4,28.3,31.4,27.6,31.4,27z"/>
<path class="st2" d="M37.4,26.6c0.3-0.5,0.6-1.1,0.9-1.6c0.1-0.1,0.1-0.2,0.3-0.2c0.3,0,0.6,0,0.9,0c-0.3,0.5-0.6,1-1,1.5
	c-0.6,0.7-0.8,1.5-0.7,2.4c0,0.4,0,0.4-0.4,0.4c-0.5,0-0.6,0-0.5-0.5c0.1-0.8-0.1-1.5-0.6-2.2c-0.3-0.4-0.6-0.9-0.9-1.4
	c0-0.1-0.1-0.1-0.1-0.2c0.3,0,0.6,0,1,0c0.1,0,0.2,0.1,0.2,0.2C36.8,25.5,37.1,26,37.4,26.6z"/>
<path class="st2" d="M13,25c0.6,0,1.1,0,1.7,0c0.3,0,0.4,0.1,0.4,0.3c0,0.2-0.1,0.3-0.4,0.3c-1.1,0-2.3,0-3.4,0
	c-0.3,0-0.4-0.1-0.4-0.3c0-0.2,0.1-0.3,0.4-0.3C11.9,25,12.5,25,13,25z"/>
<path class="st2" d="M11.9,26.8c0.5,0,0.9,0,1.4,0c0.2,0,0.3,0.1,0.4,0.3c0,0.2-0.1,0.3-0.4,0.3c-0.9,0-1.8,0-2.8,0
	c-0.2,0-0.4-0.1-0.4-0.3c0-0.2,0.2-0.3,0.4-0.3C11,26.8,11.4,26.8,11.9,26.8z"/>
<path class="st2" d="M12.8,29.1c-0.3,0-0.5,0-0.8,0c-0.2,0-0.3-0.1-0.3-0.3c0-0.2,0.1-0.3,0.3-0.3c0.6,0,1.1,0,1.7,0
	c0.2,0,0.3,0.1,0.3,0.3c0,0.2-0.1,0.3-0.3,0.3C13.4,29.1,13.1,29.1,12.8,29.1z"/>
</svg>
