<?xml version="1.0" encoding="utf-8"?>
<!-- Generator: Adobe Illustrator 26.0.1, SVG Export Plug-In . SVG Version: 6.00 Build 0)  -->
<svg version="1.1" id="Calque_1" xmlns="http://www.w3.org/2000/svg" xmlns:xlink="http://www.w3.org/1999/xlink" x="0px" y="0px"
	 viewBox="0 0 512 512" style="enable-background:new 0 0 512 512;" xml:space="preserve">
<style type="text/css">
	.st0{fill-rule:evenodd;clip-rule:evenodd;fill:#FFFFFF;}
	.st1{fill:#FECE01;}
	.st2{fill:#FDFEFA;}
	.st3{fill:#016185;}
	.st4{fill:#DF001B;}
</style>
<g>
	<path class="st0" d="M495.6,255.7c0,132.5-107.4,239.9-239.9,239.9S15.7,388.2,15.7,255.7S123.2,15.7,255.7,15.7
		S495.6,123.2,495.6,255.7z M255.7,476.2c121.8,0,220.5-98.7,220.5-220.5S377.5,35.2,255.7,35.2S35.2,133.9,35.2,255.7
		S133.9,476.2,255.7,476.2z"/>
</g>
<path class="st1" d="M477.6,255.7c0,122.6-99.4,221.9-221.9,221.9S33.7,378.2,33.7,255.7S133.1,33.7,255.7,33.7
	S477.6,133.1,477.6,255.7z"/>
<path class="st2" d="M111.5,217.9c0,0,67.4-117.4,69.2-118.2c1.8-0.8,30.8,7.1,48.7,20.8l36.3-22.4c0,0,4.2-0.3,6.1,1.3
	c1.8,1.6,15.3,19.7,20,28.2l74,25c0,0,5.8,6.8,5.8,14.7c0,7.9-84.8,234.5-84.8,234.5s-13.7,6.1-17.4,3.7
	c-3.7-2.4-96.9-32.6-100-37.9c-3.2-5.3-7.9-12.4-2.1-23.9c5.8-11.6,30.8-86.3,30.8-86.3s-46.6-22.6-83.7-32.6
	C114.4,224.8,108.9,222.5,111.5,217.9z"/>
<path class="st3" d="M293.7,331.9c-5.1-15.2-13.2-28.7-24.8-39.3c-11.5-10.5-24.1-20-37.2-28.4c-27.6-17.6-57.7-30-88.5-40.9
	c-6.3-2.2-12.6-4.5-19.6-6.9c5.8-10.1,11.2-20,16.9-29.7c13.3-22.8,26.8-45.5,40-68.4c2.7-4.7,4.8-6.8,10.8-4.5
	c18.3,7,34.3,17.4,49.6,29.3c27.8,21.7,43.8,50.9,52.5,84.4c2.5,9.6,3.4,19.7,4.1,29.6c0.9,12.8,1.5,25.7,1.2,38.5
	c-0.4,12.1-2.2,24.1-3.4,36.2C294.7,331.7,294.2,331.8,293.7,331.9z M206.9,143.6c-24-1.4-44.8,19.2-44.9,44
	c-0.1,24.6,20.3,45.4,46.3,44.6c21.4-0.7,43-18.8,43.1-44.3C251.4,164.4,231.7,142.5,206.9,143.6z"/>
<path class="st4" d="M210.2,263.4c10.7,6.9,21,13.2,31,20.1c17.6,12.2,32.8,26.7,40.1,47.5c2.4,6.7,2.9,14.2,3.4,21.5
	c0.2,3.7-1.4,6.9-7,4.8c-25-9.4-50.2-18.3-75.3-27.4c-14-5-14.6-6-9.5-19.8C198.3,294.9,204,280,210.2,263.4z"/>
<path d="M291.8,127.7c21,8.2,44,17,65.5,23.9c9.9,3.2,11.7,11.9,8.9,19.7c-14.4,40-29,80-43.5,119.9c-12.4,34-24.9,68-37.4,101.9
	c-3.2,8.8-8.8,11.7-17.6,8.5c-29.9-10.7-59.7-22.1-89.8-32.3c-11.8-4-13.1-12.3-9.9-21.7c5.1-14.6,10.6-29.1,15.9-43.6
	c5.5-15.1,10.9-30.1,16.4-45.4c-2.2-1-4.2-1.7-6.5-2.7c-3.6,9.7-7.1,19.3-10.5,28.8c-7.9,21.7-16.1,43.3-23.6,65.1
	c-4,11.7,1,20.8,12.8,25.1c11.6,4.2,23.1,8.5,34.7,12.7c19.9,7.2,39.7,14.5,59.7,21.4c11.5,4,20.8-0.7,24.8-11.5
	c13.5-36.8,27.1-73.6,40.5-110.4c14-38.3,27.8-76.6,41.5-114.9c1.2-3.5,1.8-7.6,1.4-11.2c-1-9-7.3-13.4-15.3-16.2
	c-16.7-5.9-33.2-12.1-49.9-18.2c-8-2.9-16.1-5.7-24.2-8.6L291.8,127.7z"/>
<path d="M315.4,280c6.2-47.4,3-93.5-17.3-138.4c12.9,4.7,25.1,9.1,37.4,13.6c4.3,1.6,8.6,3.2,13,4.7c7.1,2.5,8.4,5.5,5.8,12.7
	c-12,32.9-23.9,65.9-35.8,98.9C317.4,274.3,316.4,277.1,315.4,280z"/>
<path class="st3" d="M306.2,232.7c-10.5-43.8-30.5-80.1-68.1-105.7c9.4-5.7,18.1-10.9,27.3-16.5
	C293.5,146.2,306.4,186.7,306.2,232.7z"/>
<path d="M229.8,375.8c-7.1,0.1-12.5-5-12.6-12c-0.1-6.5,5.3-12.2,11.8-12.4c5.8-0.3,12.5,6.1,12.7,11.9
	C241.9,369.4,235.9,375.7,229.8,375.8z"/>
<path d="M246.9,377.5c1.6-4.4,3.1-8.7,4.7-13c7.5,2.6,14.7,5.5,22.2,7.7c5.1,1.5,6.4,4.4,5,9c-1.5,4.7-4.9,6.3-9.8,4.5
	C261.5,383.1,254.1,380.2,246.9,377.5z"/>
<path d="M211.3,349.7c-1.5,4.4-3,8.7-4.6,13.2c-8.1-2.9-16.2-5.5-24.1-8.7c-2.6-1.1-5.4-3.1-3.1-7.3c1.9-3.7,2.7-7.7,8.4-5.5
	C195.6,344.3,203.4,346.9,211.3,349.7z"/>
<path class="st3" d="M187.2,210.3C180,203.2,190,194,190,194l-3.7-3.7c-12.9,10.8-8.2,23.7,3.5,29.4c9.5,4.6,16.6-6.5,17.2-9.5
	l-3.8-3.4c0,0-6,14.5-15.6,4.2L187.2,210.3z"/>
<path class="st3" d="M190.6,184l20.6,19.7l3.5-4.5l-8.6-8.5l5.2-7.6l-3.8-4l-5.8,8.7l-4.5-4.8l6.3-8.9l-3.8-4L190.6,184z"/>
<path class="st3" d="M221.6,187.8l-15.9-25.7l4-7.2l24.6,13.4l-2.9,4.6l-6.9-3.3l-4.5,6.3l4.8,6.9L221.6,187.8z"/>
<path class="st2" d="M217.4,172.4l-6.7-10.3l10.6,5L217.4,172.4z"/>
</svg>
