<?xml version="1.0" encoding="utf-8"?>
<!-- Generator: Adobe Illustrator 26.0.1, SVG Export Plug-In . SVG Version: 6.00 Build 0)  -->
<svg version="1.1" id="Calque_1" xmlns="http://www.w3.org/2000/svg" xmlns:xlink="http://www.w3.org/1999/xlink" x="0px" y="0px"
	 viewBox="0 0 512 512" style="enable-background:new 0 0 512 512;" xml:space="preserve">
<style type="text/css">
	.st0{fill-rule:evenodd;clip-rule:evenodd;fill:#FFFFFF;}
	.st1{clip-path:url(#SVGID_00000080922595351482023620000006565634833453199747_);}
	.st2{fill-rule:evenodd;clip-rule:evenodd;fill:#F16E00;}
</style>
<g>
	<path class="st0" d="M506.2,259.1c0,137.3-111.3,248.6-248.6,248.6S9,396.4,9,259.1S120.3,10.5,257.6,10.5S506.2,121.8,506.2,259.1
		z M257.6,487.6c126.2,0,228.5-102.3,228.5-228.5S383.8,30.6,257.6,30.6S29.1,133,29.1,259.1C29.1,385.3,131.4,487.6,257.6,487.6z"
		/>
</g>
<path d="M486.1,259.1c0,126.2-102.3,228.5-228.5,228.5S29.1,385.3,29.1,259.1S131.4,30.6,257.6,30.6
	C383.7,30.6,486.1,133,486.1,259.1z"/>
<g>
	<g>
		<g>
			<defs>
				<rect id="SVGID_1_" x="133.3" y="110" width="259.2" height="298.3"/>
			</defs>
			<clipPath id="SVGID_00000062172103317236242450000017216597750791374497_">
				<use xlink:href="#SVGID_1_"  style="overflow:visible;"/>
			</clipPath>
			<g style="clip-path:url(#SVGID_00000062172103317236242450000017216597750791374497_);">
				<path class="st0" d="M166.1,352.9l-1,3.6c-0.5,2-2.2,9-3.6,15.5c-1.4,6.5-2.9,11.7-3.3,11.3c-0.2-0.4-2-7.2-4-15.3l-3.4-14.7
					l-6.6-0.4l-6.5-0.2v42.9h8.7l0.5-30.6l3.3,15.3l3.4,15.3h9l6.6-29.6l0.5,14.6l0.5,14.6l4.1,0.4l4.1,0.4v-43H166.1z M170.5,364.7
					c-0.4,0.8-0.6,0.5-0.6-0.6c0-1,0.2-1.6,0.5-1.3C170.8,363.2,170.8,364,170.5,364.7z"/>
				<path class="st0" d="M209.6,365.6c-4.3-2.6-13.6-2.6-17.9-0.1c-9.6,5.8-9.2,24.2,0.7,29.4c4.5,2.3,12.2,2.3,16.5,0
					C218.5,389.5,219,371.3,209.6,365.6z M202.1,389.3c-5.7,1.2-8.9-2.5-8.9-10.1c0-2.3,0.8-4.7,2-6.3c4-5.1,11.3-2.3,12.3,4.8
					C208.2,383.4,205.8,388.4,202.1,389.3z"/>
				<path class="st0" d="M250.6,369.3v26.4h-8.8v-11.4c0-12.4-0.5-13.9-4.9-13.9c-4.9,0-6.3,2.9-6.6,14.7l-0.4,10.6h-7.6v-32.2h3.9
					c3.3,0,3.9,0.4,3.9,2v2l2.5-2c1.8-1.4,4-2,7.3-2c4,0,5.3,0.5,7.6,2.9L250.6,369.3z"/>
				<path class="st0" d="M276.3,387.8c-2.6,2.9-7.6,2.6-10.1-0.6c-3.9-4.8-3.1-5.2,9.3-5.2h11.3l-0.6-4.9c-0.6-5.5-3.4-10-7.5-12.2
					s-12.4-1.9-16.3,0.5c-6.4,3.9-8.8,14.8-5.1,23c1.4,3.3,2.9,4.6,6,6c4.7,2.2,10,2.5,14.1,0.8c3.6-1.3,8.1-5.7,8.1-7.9
					S278.7,385.2,276.3,387.8z M265.2,374c0.6-1.2,1.7-2.5,2.2-2.9c2-1.3,6.4-0.7,8.3,1.2c3.3,3.3,2.4,3.9-4.9,3.9
					C264.1,376.2,264.1,376.2,265.2,374z"/>
				<path class="st0" d="M318.6,364.5c0,1.4-12.5,36.9-14.1,39.9c-1.6,3.1-3.3,3.9-8.3,3.9c-3.7,0-3.9-0.1-3.9-3.4
					c0-3,0.4-3.4,2.4-3.4c5.1,0,4.8-3-1.4-20.5c-3.1-8.8-5.5-16.4-5.3-16.7s2.2-0.7,4.2-0.7c2.6,0,4.1,0.5,4.7,1.7
					c0.5,1,2,6,3.6,11.2c1.4,5.1,2.8,9.2,3,9.2c0.2-0.2,1.7-5.2,3.4-11.2l3-10.8h4.2C316.6,363.5,318.6,364,318.6,364.5z"/>
				<path class="st0" d="M327.6,311.8l11-0.2l0.4-3.4c0.4-4.7-3.4-11.4-7.6-13.7c-4.3-2.3-11.2-2.3-15.5,0c-6.9,3.6-9.9,15.8-6,23.5
					c1,1.9,3.3,4.5,5.1,5.7c2.9,1.9,4.3,2.3,9.9,1.9c5.9-0.4,6.9-0.7,10-3.7c4.7-4.6,4.6-6.9-0.4-6.9c-2.5,0-4.3,0.6-5.5,1.9
					c-1.1,1.2-3,1.9-5.1,1.9c-3.4,0-7.1-2.8-7.1-5.3C316.6,312.4,318.8,312.1,327.6,311.8z M319,301.7c3-3,5.8-3,8.8,0
					c3.7,3.7,3,4.5-4.5,4.5C316,306.2,315.3,305.5,319,301.7z"/>
				<path class="st0" d="M299.2,293.5c-2.8,0-3.9,0.4-3.9,1.4c0,1.2-0.6,1.1-3.1-0.5c-3.7-2.3-8.9-2.4-12.6-0.4
					c-6.4,3.5-8.9,17.9-4.3,24.8c4.2,6.3,12.8,8.3,17.5,4.1c1.6-1.4,1.7-1.3,1.7,1.9c0,2.5-0.6,3.9-2.2,5.1c-2.8,1.9-7,1.9-8.6,0.1
					c-0.7-1-2.9-1.4-5.9-1.4c-4.1,0-4.6,0.2-4.1,1.7c2.5,7.1,15.1,9.9,24,5.4c4.7-2.4,5.5-6.1,5.5-25.1v-17.2L299.2,293.5
					L299.2,293.5z M288,317.9c-4.2,0-6.3-2.9-6.3-8.8c0-2.4,0.7-5.4,1.6-6.6c1.1-1.4,2.5-2.2,4.8-2.2c4.2,0,6.3,2.9,6.3,8.7
					C294.4,315,292.2,317.9,288,317.9z"/>
				<path class="st0" d="M267.1,312v12.8h-8.8v-11.1c0-8.8-0.4-11.4-1.4-12.6c-2-2-4.7-2-7.3,0.2c-2,1.6-2.3,2.8-2.6,12.6l-0.4,10.8
					h-7.5v-31.2h3.9c3.4,0,3.9,0.4,3.9,2.2c0,1.8,0.1,1.9,1.2,0.6c3-3.9,9.4-4.8,14.3-2.3c1.6,0.8,3.3,2.3,3.9,3.4
					C266.7,298.5,267.1,305,267.1,312z"/>
				<path class="st0" d="M232.4,323.4c-0.4-0.6-1-6.9-1.3-13.7c-0.5-12.3-0.5-12.5-3.1-14.6c-4-3-13.7-3.4-17.9-0.7
					c-3.3,2-5.2,4.8-5.2,7.3c0,2.4,6.9,2,9-0.4c1.9-2.3,6.7-2.6,8.4-0.5c1.9,2.3-0.4,4.1-6.1,4.9c-9.3,1.2-12.3,4-12.3,11.1
					c0,5.8,3.3,8.8,9.5,8.8c3.3,0,5.5-0.6,7.2-1.9c2-1.6,2.5-1.7,3-0.5c0.4,1,1.9,1.4,5.1,1.4C232.1,324.7,232.9,324.4,232.4,323.4z
					 M215.8,319.7c-2.3-0.2-2.6-0.7-2.6-3.7c0-3.3,0.2-3.5,4.3-4.5c6-1.6,5.8-1.6,5.8,1.2C223.3,316.1,219.1,320,215.8,319.7z"/>
				<path class="st0" d="M201,296.9c0,4.1-0.1,4.5-2.6,4.5c-5.5,0-7.1,3.4-7.1,15.2v8.2h-8.7v-31.2h4.3c3.7,0,4.3,0.4,4.3,1.9
					c0,1.8,0.2,1.7,2.4-0.5c1.3-1.3,3.5-2.4,4.8-2.4C200.8,292.6,201,292.9,201,296.9z"/>
				<path class="st0" d="M163.3,282c-7.5-2-15.7-0.5-20.4,4c-4.5,4.2-6.4,9.4-6.5,17.5c0,8.8,2.6,15.1,7.9,19.1c3,2.3,4.6,2.6,11,3
					c9.2,0.4,14.2-1.7,18.2-7.8c2.3-3.5,2.6-5.3,3-12.3C177.2,292.5,172.6,284.5,163.3,282z M156.8,317.9c-7.2,0-11.2-5.2-11.2-14.7
					c0-6,2-10.6,5.7-12.9c8.1-5.1,16.7,1.8,16.7,13.4C167.9,312.7,163.9,317.9,156.8,317.9z"/>
				<path class="st2" d="M390.8,129.4c-1,1.4-18.8,19.1-39.7,39.5l-37.9,37l4.3,0.6c2.4,0.4,14.8,0.6,27.6,0.6
					c25.8,0,27.5,0.4,31,6.1c4.1,6.7,1.2,15.7-5.9,18.5c-3.5,1.4-8.8,1.4-49.1,0.8c-50.2-0.6-49-0.5-52.3-7.3
					c-1.4-3-1.6-7.5-1.6-33.8c0-16.7,0.4-38.1,0.6-47.5l0.6-17l3.1-3.4c2.6-2.9,3.9-3.4,8.6-3.9c5.1-0.4,5.7-0.2,9.2,3l3.7,3.5
					l0.5,30.8l0.5,30.8l39.1-38.1c21.6-21,40.1-38.5,41.3-39c3.4-1.3,8.3-1.2,11.6,0.5C391.8,114.6,394.4,124,390.8,129.4z"/>
				<path class="st0" d="M255.6,233.2c-4.8,9-18.3,8.9-23.2-0.2c-1.4-2.6-1.8-6.7-2.2-30.2l-0.5-27.1l-37.5,38.1
					c-40,40.7-40.9,41.7-48.3,40c-4.3-1-8.8-5.2-10-9.6c-2-7.2-1.7-7.6,39.4-49.4l38.5-39.1h-28.5c-25.2,0-28.9-0.2-31.8-1.7
					c-5.1-2.5-7.3-6.4-7.3-11.9c0-5.5,2.4-9.3,7.3-11.9c3-1.6,7.3-1.7,48.9-1.7c35.8,0,46.2,0.4,48.7,1.3c1.7,0.7,4.1,2.5,5.5,3.9
					l2.4,2.6l0.2,46.9C257.4,227.1,257.3,230.1,255.6,233.2z"/>
			</g>
		</g>
	</g>
</g>
</svg>
