<?xml version="1.0" encoding="utf-8"?>
<!-- Generator: Adobe Illustrator 26.0.1, SVG Export Plug-In . SVG Version: 6.00 Build 0)  -->
<svg version="1.1" id="Calque_1" xmlns="http://www.w3.org/2000/svg" xmlns:xlink="http://www.w3.org/1999/xlink" x="0px" y="0px"
	 viewBox="0 0 295.8 295.8" style="enable-background:new 0 0 295.8 295.8;" xml:space="preserve">
<style type="text/css">
	.st0{fill-rule:evenodd;clip-rule:evenodd;fill:#FFFFFF;}
	.st1{fill:#F9DC4A;}
	.st2{fill:#D93834;}
	.st3{fill:#D93935;}
	.st4{fill:#DA3B37;}
</style>
<g>
	<path class="st0" d="M289.3,147.9c0,78.1-63.3,141.4-141.4,141.4S6.6,226,6.6,147.9C6.6,69.8,69.9,6.5,148,6.5
		S289.3,69.8,289.3,147.9z M148,274.8c70.1,0,126.9-56.8,126.9-126.9C274.8,77.8,218,21,148,21S21.1,77.8,21.1,147.9
		C21.1,218,77.9,274.8,148,274.8z"/>
</g>
<path class="st1" d="M278.7,147.9c0,72.2-58.6,130.8-130.8,130.8S17.2,220.1,17.2,147.9S75.7,17.1,148,17.1S278.7,75.7,278.7,147.9z
	"/>
<path class="st2" d="M74.7,178.7l25.2-33.3c1.4-2.2,3.3-4,5.5-5.4c1.1-0.7,2.4-1,3.7-1c1.3,0.1,2.5,0.5,3.6,1.3c1.9,1.7,2,4.6,2,7.2
	l-0.1,15.1c0,0.4,0.1,0.8,0.5,0.9c0.4,0,0.4-0.2,0.6-0.4l13.6-18.1c1.1-1.7,2.5-3.1,4.1-4.2c-0.1,1.2,0.1,2.4,0.7,3.5
	s1.5,1.9,2.6,2.4s2.3,0.7,3.5,0.5c1.2-0.2,2.3-0.8,3.2-1.6c0.1,5.4,0.2,10.8,0.2,16.3c0,2.7,0,5.4,0,8.2c0,1.4,0,2.7,0,4.1
	c0,0.7,0,1.4,0,2c0,0.4-0.1,0.8-0.3,1.1c-1.2,1.5-3.2,1.5-5,1.4c-0.9,0-1.7-0.2-2.4-0.7c-0.4-0.5-0.7-1-0.9-1.6
	c-0.2-0.6-0.2-1.2-0.1-1.8V152c0-0.5-0.1-1.1-0.6-1.2c-0.5-0.1-0.8,0.3-1,0.6l-16.9,22.4c-1.1,1.9-2.7,3.4-4.6,4.4
	c-2,0.9-4.8,0.3-5.6-1.7c-0.3-0.8-0.4-1.6-0.4-2.4l-0.2-21.9c0-0.6-0.3-1.4-0.9-1.2c-0.2,0.1-0.4,0.2-0.5,0.4l-17.8,24.2
	c-0.5,0.9-1.3,1.7-2.2,2.3c-0.9,0.6-1.9,1-3,1.1C79,179.1,76.8,178.9,74.7,178.7z"/>
<path class="st2" d="M84.9,126.6h29.5c1.1-0.2,2.2,0,3.2,0.5c0.7,0.4,1.3,1,1.6,1.7c0.3,0.7,0.4,1.6,0.2,2.3
	c-0.2,0.9-0.7,1.7-1.4,2.3c-0.7,0.6-1.7,0.8-2.6,0.8c-4.7,0-9.5,0-14.2,0c-3.1,0-6.3,0-9.4,0c-0.5,0-1,0.1-1.4,0.3
	c-0.4,0.2-0.8,0.6-1,1c-9,13.8-18.1,27.6-27.1,41.5c-0.3,0.6-0.7,1-1.3,1.3c-0.5,0.3-1.2,0.4-1.8,0.4c-2.2-0.1-4.5,0-6.7,0
	c-0.4,0-1.1,0-1.3-0.2c-0.4-0.5,0.2-0.9,0.5-1.3c4.4-6.4,8.8-12.7,13.2-19L80.1,136c0.3-0.5,0.9-0.9,0.7-1.5c-0.3-0.6-1-0.3-1.5-0.3
	c-8.3,0-16.6,0-25,0c-0.9,0.1-1.7-0.1-2.5-0.6c-0.7-0.5-1.3-1.2-1.5-2c-0.3-0.7-0.3-1.5-0.1-2.3c0.2-0.7,0.6-1.4,1.2-1.9
	c1-0.7,2.1-0.9,3.3-0.8L84.9,126.6z"/>
<path class="st2" d="M206.5,167.6h13.1c0.4,0,0.9-0.1,1.2-0.3c0.3-0.3,0.4-0.7,0.4-1.2c0.2-2.1-0.1-4.1-0.8-6.1
	c-0.7-2-2-3.7-3.6-4.9c-1.2-0.8-2.5-1.3-3.9-1.6c-1.4-0.2-2.8-0.2-4.2,0.2c-2.7,0.8-5.1,2.5-6.6,4.9c-1.4,2.4-2.1,5.1-2.1,7.8
	c-0.2,2.6,0.3,5.2,1.5,7.4c0.9,1.5,2.2,2.7,3.6,3.6c1.5,0.9,3.1,1.5,4.8,1.8c2.3,0.3,4.6,0.1,6.9-0.6c0.6-0.2,1.1-0.4,1.6-0.6
	c0.4-0.2,1.2-0.4,1.4-0.7c0.2-0.3,0-1.1-0.1-1.5c-0.1-0.6-0.3-1.1-0.6-1.7c-0.1-0.3-0.3-0.5-0.5-0.6c-0.2-0.1-0.4-0.1-0.7,0
	c-0.2,0-0.4,0.1-0.6,0.3c-1.2,0.7-2.5,1.1-3.8,1.3c-1.4,0.2-2.7,0-4-0.4c-1.3-0.4-2.4-1.2-3.3-2.3c-0.8-1.1-1.3-2.4-1.4-3.7
	c0-0.3,0-0.5,0.2-0.7c0.1-0.1,0.3-0.2,0.5-0.3c0.2-0.1,0.4-0.1,0.6-0.1H206.5z M205.3,162.2c0.4-1.2,1.1-2.3,2.1-3
	c1-0.8,2.2-1.2,3.4-1.3c1.2-0.1,2.4,0.2,3.3,0.9c1,0.7,1.6,1.7,1.9,2.9c0.3,1.2,0,1.6-1.3,1.5c-1.3-0.1-2.7,0-4,0h-4.4
	C205.6,163.3,205.1,163.2,205.3,162.2z"/>
<path class="st2" d="M173.3,164.5c-0.1-1.9-0.7-3.8-1.7-5.5c-1-1.7-2.4-3-4.1-4c-1.7-1-3.6-1.5-5.5-1.5c-1.9,0-3.9,0.4-5.6,1.4
	c-5.2,2.7-7.9,9.8-6,15.9c2.1,6.6,7.5,9.8,13.9,8.3c5.5-1.3,9-6.2,9-12.6C173.3,165.8,173.3,165.1,173.3,164.5z M167.7,170.8
	c-0.5,1.3-1.5,2.4-2.6,3.2c-1.2,0.8-2.6,1.2-4,1.1c-1.5-0.2-3-0.9-4.1-2c-1.1-1.1-1.8-2.5-2.1-4c-0.7-2.5-0.4-5.1,0.8-7.4
	c0.5-1.1,1.4-2.1,2.4-2.8s2.3-1,3.6-1c1.2,0,2.5,0.3,3.5,1c1.1,0.7,1.9,1.6,2.4,2.8c0.8,1.4,1.1,3.1,1.1,4.7
	C168.7,168,168.4,169.5,167.7,170.8z"/>
<path class="st2" d="M232.7,170.8c2.1-5.4,4-10.2,5.7-15.2c0.6-1.6,1.5-1.8,2.9-1.7c0.6,0,2,0,1.9,0.5c-0.5,2.1-1,4.1-1.8,6.2
	c-2.8,6.6-5.2,13.4-8.3,19.9c-1.6,3.8-4.6,6.9-8.4,8.5c-1.2,0.5-1.7,0.2-2.1-0.9c-0.9-2.4-1-2.4,1.4-3.7c2.3-1.3,4.1-3.3,5.3-5.7
	c0.3-0.5,0.5-1,0.5-1.6c0-0.6-0.1-1.1-0.3-1.6c-2.7-6.5-5.3-13.1-7.9-19.6c-0.6-1.4-0.5-2,1.3-1.9c3.2,0.1,3.1,0,4.3,3
	C228.8,161.3,230.6,165.8,232.7,170.8z"/>
<path class="st2" d="M196.9,169.8c0,2.4,0,4.9,0,7.3c0,0.4,0,0.8-0.2,1.2c-0.1,0.1-0.1,0.3-0.3,0.4c-0.1,0.1-0.2,0.2-0.4,0.2
	c-0.2,0-2.6,0.1-2.8,0c-0.3,0-0.6-0.2-0.8-0.4c-0.2-0.2-0.3-0.5-0.4-0.9c0-0.3,0-0.6,0-0.9c0.1-4.3,0-8.7,0-13
	c0-3.7-1.8-5.8-4.9-5.8c-0.8,0-1.5,0.2-2.2,0.5c-0.7,0.3-1.4,0.7-1.9,1.3c-0.5,0.6-1,1.2-1.2,1.9c-0.3,0.7-0.4,1.5-0.4,2.3
	c-0.1,4.4-0.1,8.8,0,13.2c0,1.4-0.3,2-1.8,1.9c-3.4-0.1-2.9,0.3-2.9-2.8c-0.1-6.9,0.3-13.8-0.3-20.6c0-0.5,0-1,0.5-1.3
	c0.3-0.1,0.6-0.2,0.9-0.2l1-0.1c0.4-0.1,0.9-0.1,1.4,0c0.3,0.1,0.5,0.3,0.7,0.6c0.2,0.2,0.3,0.5,0.3,0.8c0.2,0.7,0.9,0,1.3-0.2
	c2-1.2,4.3-1.6,6.6-1.3c2.1,0.3,4,1.3,5.5,2.9c1.4,1.6,2.2,3.6,2.2,5.8C197,164.8,196.9,167.3,196.9,169.8L196.9,169.8z"/>
<path class="st3" d="M138.4,124c3.6,0,7.1,0.9,10.1,2.8c3,1.9,5.5,4.6,7,7.8c0.1,0.3,0.1,0.6,0.1,0.9c0,0.3-0.1,0.6-0.3,0.9
	c-0.2,0.3-0.4,0.5-0.6,0.7c-0.3,0.2-0.6,0.3-0.9,0.3c-0.8,0-0.8-0.8-1-1.2c-1.5-3.2-4.1-5.9-7.3-7.5c-3.2-1.6-6.9-2-10.3-1.3
	c-1.3,0.2-2.5,0.7-3.6,1.3c-1.3,0.8-1.5,0-2.1-0.9c-0.6-0.9-0.3-1.5,0.8-2C132.8,124.6,135.6,124,138.4,124z"/>
<path class="st3" d="M138.4,130.9c2.4-0.1,4.8,0.6,6.8,2c2,1.3,3.6,3.3,4.4,5.5c0.1,0.7,0,1.5-0.4,2.1c-0.4,0.6-1.1,1.1-1.8,1.3
	c-0.6,0-0.5-0.5-0.6-0.8c-0.3-1.3-0.8-2.5-1.7-3.5c-0.8-1-1.9-1.8-3.1-2.4c-1.2-0.5-2.5-0.8-3.8-0.8c-1.3,0-2.6,0.4-3.8,1
	c-1.2,0.6-1.3-0.2-1.5-0.9s-1.4-1.5,0-2.2C134.6,131.3,136.5,130.8,138.4,130.9z"/>
<path class="st4" d="M136.2,140.3c2.2,0.2,4.2,1.1,5.9,2.5c0.7,0.6,1,1.3,0.1,2c-0.6,0.6-1.3,1-2.2,1.2c-0.8,0.2-1.7,0.1-2.5-0.2
	c-0.8-0.2-1.6-0.7-2.1-1.4c-0.5-0.7-0.9-1.5-1-2.3C134.3,140.8,134.7,140.1,136.2,140.3z"/>
</svg>
